<svg id="Capa_1" enable-background="new 0 0 511.976 511.976" height="512" viewBox="0 0 511.976 511.976" width="512" xmlns="http://www.w3.org/2000/svg"><g><g><path d="m205.941 350.029 3.883-18.719h-21.003c-12.024 0-21.888-9.127-23.134-20.855h-20.902c-15.373 0-27.209-13.666-24.916-28.867 4.305-28.543 14.489-52.744 25.488-71.806h-41.159c-16.213 0-29.355 13.143-29.355 29.356v144.955h158.819c-17.948-.001-31.367-16.489-27.721-34.064z" fill="#fff"/><path d="m407.777 209.781h-41.159c11 19.062 21.183 43.263 25.488 71.806 2.293 15.201-9.542 28.867-24.916 28.867h-20.886c-1.169 11.74-11.135 20.855-23.149 20.855h-21.004l3.883 18.719c3.646 17.575-9.773 34.063-27.722 34.063h158.819v-144.954c.002-16.212-13.141-29.356-29.354-29.356z" fill="#fff"/><path d="m233.663 384.092h-158.819v32.822c0 16.213 13.143 29.355 29.355 29.355h128.838 45.903 128.838c16.213 0 29.355-13.143 29.355-29.355v-32.822h-158.82z" fill="#9593e6"/><path d="m222.088 501.976h67.801l-10.949-55.707h-45.903z" fill="#cbcaf3"/><path d="m205.941 350.029c-3.646 17.575 9.773 34.063 27.722 34.063h44.65c17.949 0 31.368-16.488 27.722-34.063l-3.883-18.719h-92.329z" fill="#79b2ff"/><path d="m144.785 310.455h20.902c-.077-.724-.121-1.458-.131-2.2-.722-55.072 5.658-103.421 15.325-144.624-6.219 5.972-21.531 21.903-35.523 46.15-11 19.062-21.183 43.263-25.488 71.806-2.293 15.202 9.542 28.868 24.915 28.868z" fill="#fff398"/><path d="m346.418 308.457c-.009.674-.047 1.34-.113 1.998h20.886c15.373 0 27.209-13.666 24.916-28.867-4.305-28.543-14.489-52.744-25.488-71.806-13.992-24.247-29.305-40.178-35.523-46.15 9.678 41.253 16.062 89.669 15.322 144.825z" fill="#fff398"/><circle cx="255.988" cy="224.563" fill="#a5dbff" r="36.049"/></g><path d="m165.556 308.255c.01.742.054 1.476.131 2.2 1.246 11.727 11.11 20.855 23.134 20.855h21.003 92.329 21.004c12.015 0 21.98-9.115 23.149-20.855.065-.658.104-1.324.113-1.998.74-55.156-5.644-103.573-15.323-144.826-14.93-63.633-18.339-67.097-21.693-70.451h-106.829c-7.429 7.429-6.546 5.892-21.693 70.451-9.667 41.203-16.047 89.552-15.325 144.624zm90.432-119.741c19.909 0 36.049 16.14 36.049 36.049s-16.14 36.049-36.049 36.049-36.049-16.14-36.049-36.049 16.14-36.049 36.049-36.049z" fill="#9bbecf"/><path d="m309.402 93.18c-9.395-24.292-21.212-49.134-34.624-71.2-10.53-17.388-28.565-14.927-37.978.659-13.408 22.22-24.942 46.537-34.226 70.541z" fill="#fff398"/><g><path d="m447.128 239.136c0-21.698-17.652-39.35-39.35-39.35h-35.47c-12.44-20.368-25.388-34.522-32.181-41.303-9.535-39.764-21.443-69.019-21.404-68.919-10.173-26.26-29.276-64.935-37.879-76.69-2.152-3.089-7.104-8.059-12.095-10.104l.001-.002c-7.991-3.69-17.533-3.691-25.525 0l.001.002c-4.984 2.042-9.928 7-12.085 10.09-6.131 8.374-25.029 42.982-37.886 76.699-.001.002-.002.004-.003.007-.004.011-.008.022-.012.032-.002.005-.004.011-.006.016 0 0 0 .002-.001.002-8.528 22.036-15.71 45.197-21.395 68.878-6.793 6.791-19.747 20.961-32.169 41.291h-35.471c-21.698 0-39.35 17.652-39.35 39.35 0 14.701-.004 160.862-.004 177.777 0 21.701 17.655 39.355 39.355 39.355h116.68l-7.018 35.708h-19.71c-5.523 0-10 4.477-10 10s4.477 10 10 10h123.674c5.522 0 10-4.477 10-10s-4.478-10-10-10h-19.71l-7.018-35.708h116.681c21.7 0 39.355-17.655 39.355-39.355-.001-16.837-.005-163.324-.005-177.776zm-231.399 112.925 2.235-10.755h28.024v32.785h-12.506c-11.525-.109-20.093-10.729-17.753-22.03zm-40.172-43.936c-.423-32.046 1.62-64.791 6.403-96.872 5.484-36.996 14.708-73.565 27.521-108.076h93.014c13.022 35.076 22.742 73.302 28.372 113.997 5.651 40.843 6.151 85.842 5.48 92.299-.667 6.746-6.337 11.833-13.189 11.833-37.645 0-91.699 0-134.34 0-7.307 0-13.166-5.88-13.261-13.181zm116.953 59.222c-7.911 9.718-18.627 5.889-26.521 6.745v-32.785h28.024c.59 6.433 6.263 16.5-1.503 26.04zm134.618 26.745v22.825c0 10.669-8.681 19.35-19.35 19.35h-303.58c-10.669 0-19.35-8.681-19.35-19.35v-22.825zm-19.35-174.306c10.669 0 19.35 8.68 19.35 19.35v134.955h-115.169c8.572-15.699 2.729-29.41 2.481-32.785 8.119-.028 9.099.077 11.512-.121 12.773-1.047 23.568-9.236 28.125-20.729h13.112c21.497 0 38.008-19.128 34.808-40.363-3.002-19.883-9.153-40.339-18.781-60.307zm-25.558 63.29c.664 4.405-.577 8.697-3.493 12.086-6.599 7.667-15.191 4.59-22.251 5.294.025-33.417-2.561-67.404-8.003-100.649 17.008 24.561 29.142 52.774 33.747 83.269zm-135.069-258.225c.165-.214.322-.435.471-.664 3.601-5.541 13.114-5.559 16.732 0 10.763 16.569 22.794 41.981 30.126 58.99h-77.083c11.564-27.223 25.491-52.383 29.754-58.326zm-91.648 275.605h-10.715c-9.08 0-16.439-8.036-15.033-17.377 4.521-29.932 16.437-58.282 33.747-83.263-5.441 33.209-8.025 67.253-7.999 100.64zm-51.305-80.67h24.564c-9.614 19.937-15.772 40.377-18.783 60.311-1.522 10.106 1.435 20.353 8.112 28.112 14.172 16.466 32.841 11.302 39.866 12.248 4.918 12.403 17.131 20.85 30.861 20.85h8.718c-.25 3.388-6.101 17.07 2.48 32.785h-115.168v-134.956c0-10.669 8.681-19.35 19.35-19.35zm173.533 272.19h-43.487l7.018-35.708h29.451z"/><path d="m255.988 270.612c21.562 0 40.496-15.282 45.021-36.336 1.161-5.399-2.275-10.717-7.675-11.878-5.406-1.163-10.718 2.276-11.878 7.676-2.558 11.901-13.269 20.539-25.468 20.539-14.363 0-26.049-11.686-26.049-26.049 0-12.39 8.8-23.134 20.925-25.547 5.417-1.078 8.934-6.343 7.856-11.759-1.077-5.416-6.341-8.936-11.759-7.856-21.452 4.269-37.022 23.262-37.022 45.162 0 25.391 20.658 46.048 46.049 46.048z"/><path d="m281.828 209.446c5.312 0 10-4.281 10-10 0-6.378-5.868-11.035-11.95-9.81-4.829.984-8.05 5.184-8.05 9.81 0 5.766 4.738 10 10 10z"/></g></g></svg>